<?xml version="1.0" encoding="UTF-8"?>
<svg version="1.1" xmlns="http://www.w3.org/2000/svg" width="512" height="512">
<path d="M0 0 C9.8307404 7.53746305 16.08791791 18.60281105 18.27734375 30.74609375 C20.14861627 48.52318267 15.88693571 65.83275089 5.08984375 80.24609375 C-3.22716213 90.25422871 -12.35650646 99.5362212 -21.52488708 108.75605774 C-22.67367234 109.91461631 -23.82227328 111.07335765 -24.97070843 112.23226327 C-28.09345848 115.3822049 -31.21916341 118.52919898 -34.34550488 121.67557561 C-37.03515279 124.38317384 -39.72308838 127.09246908 -42.41109055 129.80170099 C-67.93478303 155.52582966 -93.50670998 181.20211251 -119.08891201 206.86803913 C-122.41622785 210.20644045 -125.74343988 213.54494519 -129.07055664 216.88354492 C-129.89735418 217.713187 -130.72415172 218.54282907 -131.57600374 219.39761182 C-144.95194719 232.82097872 -158.30325599 246.2685846 -171.6451882 259.72574756 C-185.38483363 273.58305764 -199.1493874 287.41525435 -212.93729168 301.22454995 C-220.66135918 308.96194944 -228.3741311 316.70990578 -236.05837822 324.48687172 C-242.60550777 331.11299551 -249.17485477 337.71607591 -255.77297419 344.29144279 C-259.12893276 347.63720054 -262.474088 350.99197335 -265.79045296 354.37701988 C-281.1723692 370.06102684 -295.6554483 382.06530867 -315.7059356 391.33653963 C-320.31936152 393.49214974 -324.81150721 395.87015309 -329.3203125 398.234375 C-332.47171751 399.84942647 -335.62857267 401.45369132 -338.78515625 403.05859375 C-341.96437875 404.67804997 -345.14270136 406.29925941 -348.3203125 407.921875 C-349.09385071 408.31678635 -349.86738892 408.71169769 -350.66436768 409.11857605 C-357.90946553 412.82579136 -365.10848154 416.61859431 -372.30541992 420.41821289 C-379.45165498 424.18948218 -386.63176202 427.89532023 -393.81567383 431.59423828 C-398.89486537 434.2155949 -403.95708556 436.84937181 -408.9453125 439.640625 C-409.71214355 440.06529053 -410.47897461 440.48995605 -411.26904297 440.92749023 C-412.63684249 441.68999558 -413.9974517 442.46564337 -415.34814453 443.25805664 C-420.11171646 445.90002163 -423.41968853 446.18012469 -428.72265625 445.74609375 C-431.56390278 444.51076917 -433.14363484 443.49054985 -435.03515625 441.05859375 C-437.21552944 433.7246112 -435.15795202 428.50778837 -431.69921875 422.1015625 C-431.06891251 420.88766594 -431.06891251 420.88766594 -430.4258728 419.64924622 C-429.0815977 417.0691023 -427.71521534 414.50145825 -426.34765625 411.93359375 C-425.46725943 410.25273301 -424.58834095 408.57109708 -423.7109375 406.88867188 C-421.50682009 402.67150147 -419.28424866 398.46439576 -417.05505371 394.26043701 C-414.87204032 390.14091174 -412.69921436 386.01603319 -410.52734375 381.890625 C-410.11267853 381.10314377 -409.69801331 380.31566254 -409.27078247 379.50431824 C-405.55265199 372.43635435 -401.88148246 365.34492279 -398.22265625 358.24609375 C-387.67031649 337.80166639 -387.67031649 337.80166639 -384.51170015 331.98703444 C-382.36741585 328.00075378 -380.37661575 324.01721905 -378.60800934 319.84963036 C-370.39952507 301.34973765 -357.11141749 288.59803132 -342.90376735 274.60650587 C-339.34574197 271.0903531 -335.82011272 267.54194576 -332.29011536 263.99769592 C-325.39594863 257.08557011 -318.47324634 250.2027439 -311.54025996 243.32957973 C-303.45372174 235.31038013 -295.39749863 227.26100187 -287.34245008 219.21019296 C-272.96633894 204.84349388 -258.5648408 190.50252413 -244.14794922 176.17675781 C-230.18098318 162.2980024 -216.22991841 148.40353589 -202.29736328 134.49023438 C-201.43808509 133.63214993 -200.5788069 132.77406549 -199.69348997 131.88997848 C-196.23880963 128.4400395 -192.78414434 124.99008544 -189.32952186 121.54008851 C-176.01411598 108.24347084 -162.68682089 94.95877324 -149.35728583 81.67632157 C-145.33930726 77.67248232 -141.32183928 73.66813357 -137.3055706 69.66257906 C-128.8692488 61.24895832 -120.42884451 52.83951778 -111.97510517 44.44339336 C-108.48242153 40.97440551 -104.99196899 37.50325765 -101.50786781 34.02564812 C-98.31290602 30.83685851 -95.11104406 27.65516549 -91.90372545 24.47880618 C-90.75060037 23.33451719 -89.59988183 22.1877963 -88.45196313 21.0382845 C-65.11613506 -2.31786798 -31.35972215 -20.38127809 0 0 Z M-77.41015625 42.18359375 C-78.99710673 43.79064247 -80.58499001 45.39677062 -82.17382812 47.00195312 C-86.03426245 50.90611193 -89.88300294 54.82150109 -93.72265625 58.74609375 C-92.25143009 62.14962397 -90.35323112 64.35865124 -87.73193359 66.96386719 C-86.91123383 67.78441589 -86.09053406 68.6049646 -85.2449646 69.45037842 C-84.35846222 70.32655823 -83.47195984 71.20273804 -82.55859375 72.10546875 C-81.6513858 73.0098468 -80.74417786 73.91422485 -79.80947876 74.8460083 C-77.40381206 77.24405833 -74.99219889 79.63603993 -72.57928467 82.02679443 C-70.11563281 84.46994546 -67.65767048 86.91880581 -65.19921875 89.3671875 C-60.37892052 94.16543163 -55.55295782 98.95792107 -50.72265625 103.74609375 C-47.82583874 102.43135208 -45.72632592 101.01108791 -43.45800781 98.7878418 C-42.84346741 98.18928879 -42.228927 97.59073578 -41.59576416 96.9740448 C-40.9415448 96.32518814 -40.28732544 95.67633148 -39.61328125 95.0078125 C-38.92764099 94.33120071 -38.24200073 93.65458893 -37.5355835 92.95747375 C-36.08382085 91.52021554 -34.63485134 90.08013131 -33.18847656 88.63745117 C-31.00654988 86.46730439 -28.8067048 84.31654905 -26.60546875 82.16601562 C-14.44124876 70.14277629 -3.97439307 58.12447911 -3.28515625 40.24609375 C-3.52788714 31.99324355 -5.36579575 25.56683426 -11.47265625 19.80859375 C-35.83759236 0.85312052 -60.8553912 25.26129177 -77.41015625 42.18359375 Z M-112.33681548 77.11185598 C-112.98309948 77.75889943 -113.62938348 78.40594287 -114.29525185 79.07259369 C-115.0411972 79.81455695 -115.78714256 80.5565202 -116.55569232 81.3209672 C-117.79011177 82.56412518 -117.79011177 82.56412518 -119.04946899 83.83239746 C-119.9209745 84.70219411 -120.79248 85.57199077 -121.69039476 86.46814489 C-124.11806807 88.8930829 -126.54114854 91.32245422 -128.96244431 93.75375056 C-131.57096367 96.37087545 -134.18522772 98.98225038 -136.79881287 101.59431458 C-141.32943517 106.12388619 -145.85636986 110.65711669 -150.38084793 115.19282532 C-156.92255534 121.75075985 -163.46975283 128.30319036 -170.01832037 134.85427374 C-180.64177868 145.48211355 -191.26075939 156.11441565 -201.87695312 166.74951172 C-212.19199795 177.08290361 -222.50913311 187.41420101 -232.82910156 197.74267578 C-233.46480617 198.37890584 -234.10051078 199.0151359 -234.75547917 199.67064565 C-237.9445107 202.86228718 -241.13358353 206.05388745 -244.3226769 209.24546719 C-270.79574331 235.73928023 -297.2615554 262.24033018 -323.72265625 288.74609375 C-322.12804456 292.11007229 -320.38426843 294.32780434 -317.73193359 296.96386719 C-316.50088394 298.19469025 -316.50088394 298.19469025 -315.2449646 299.45037842 C-314.35846222 300.32655823 -313.47195984 301.20273804 -312.55859375 302.10546875 C-311.19778183 303.46203583 -311.19778183 303.46203583 -309.80947876 304.8460083 C-307.40381206 307.24405833 -304.99219889 309.63603993 -302.57928467 312.02679443 C-300.11563281 314.46994546 -297.65767048 316.91880581 -295.19921875 319.3671875 C-290.37892052 324.16543163 -285.55295782 328.95792107 -280.72265625 333.74609375 C-277.53349404 332.33776199 -275.39287659 330.6653286 -272.93519974 328.20473289 C-272.19223908 327.46575433 -271.44927842 326.72677577 -270.6838038 325.96540391 C-269.87446507 325.15023951 -269.06512635 324.3350751 -268.23126221 323.49520874 C-267.36621496 322.63187034 -266.50116771 321.76853194 -265.60990691 320.87903178 C-263.20955898 318.48141087 -260.81378572 316.07937806 -258.41982293 313.67539167 C-255.83725428 311.08419334 -253.24891584 308.4987699 -250.66127014 305.91264343 C-246.17870227 301.43112472 -241.69981343 296.94595606 -237.2233963 292.45829391 C-230.75122944 285.96987918 -224.27355288 279.48698821 -217.79451439 273.00543602 C-207.28308473 262.48962814 -196.77612999 251.96936084 -186.27197266 241.44628906 C-176.06760914 231.22357004 -165.86114903 221.00295181 -155.65185547 210.78515625 C-155.0226503 210.15542563 -154.39344512 209.52569501 -153.74517313 208.87688164 C-150.58865104 205.7177495 -147.43208761 202.55865865 -144.27550364 199.39958835 C-118.08480939 173.18815765 -91.90137023 146.96948949 -65.72265625 120.74609375 C-67.31242472 117.39550733 -69.05066747 115.16512498 -71.68164062 112.52832031 C-72.49588501 111.70777161 -73.31012939 110.8872229 -74.14904785 110.04180908 C-75.02927612 109.16562927 -75.90950439 108.28944946 -76.81640625 107.38671875 C-77.71887085 106.4823407 -78.62133545 105.57796265 -79.55114746 104.6461792 C-81.45860729 102.73735884 -83.36796037 100.83068826 -85.28076172 98.92724609 C-87.73571934 96.48371494 -90.18154618 94.0312714 -92.62480927 91.57605362 C-94.95466219 89.23725462 -97.29210156 86.90606882 -99.62890625 84.57421875 C-100.50913452 83.68994202 -101.38936279 82.80566528 -102.29626465 81.89459229 C-103.51763123 80.68268219 -103.51763123 80.68268219 -104.76367188 79.44628906 C-105.48155884 78.72999329 -106.1994458 78.01369751 -106.93908691 77.2756958 C-109.25207719 75.29205849 -109.99116713 75.12717079 -112.33681548 77.11185598 Z M-345.19140625 309.625 C-352.1020387 316.61550285 -355.95502361 324.92739577 -360.22265625 333.68359375 C-361.06065314 335.3648134 -361.90075631 337.04498478 -362.74291992 338.72412109 C-364.37248366 341.97694786 -365.99360655 345.23372033 -367.60693359 348.49462891 C-370.00438222 353.32910638 -372.49265215 358.11144268 -375.03515625 362.87109375 C-377.81487945 368.10913851 -380.56526204 373.36155392 -383.2890625 378.62890625 C-383.75996056 379.53922104 -383.75996056 379.53922104 -384.2403717 380.46792603 C-385.7968566 383.47771169 -387.35139299 386.48847406 -388.90356445 389.50048828 C-393.65485287 398.69509248 -393.65485287 398.69509248 -396.13671875 402.91796875 C-397.88569521 405.49642466 -397.88569521 405.49642466 -397.72265625 407.74609375 C-392.61365092 406.23825544 -388.19468859 404.01367983 -383.53515625 401.49609375 C-381.84425687 400.59410125 -380.15281793 399.69311974 -378.4609375 398.79296875 C-377.54521973 398.30505859 -376.62950195 397.81714844 -375.68603516 397.31445312 C-370.21794054 394.42048049 -364.71821483 391.58745543 -359.22265625 388.74609375 C-344.15882113 380.94545758 -344.15882113 380.94545758 -329.15478516 373.03076172 C-326.44014489 371.59686922 -323.71207347 370.19013093 -320.984375 368.78125 C-306.94161195 361.61082849 -306.94161195 361.61082849 -295.72265625 350.74609375 C-300.40668338 345.12049255 -305.40474365 339.91803622 -310.5859375 334.75 C-311.83482002 333.49968239 -311.83482002 333.49968239 -313.1089325 332.22410583 C-314.85663092 330.47573047 -316.60557855 328.72860301 -318.35571289 326.98266602 C-321.04755253 324.29622231 -323.73396412 321.60443253 -326.41992188 318.91210938 C-328.12077284 317.21191848 -329.82193358 315.51203743 -331.5234375 313.8125 C-332.3306575 313.00325577 -333.1378775 312.19401154 -333.96955872 311.36024475 C-334.71090561 310.62205002 -335.4522525 309.88385529 -336.21606445 309.12329102 C-336.87081253 308.46933853 -337.52556061 307.81538605 -338.20014954 307.14161682 C-341.21825913 304.37523061 -342.5682355 307.20558796 -345.19140625 309.625 Z " fill="#000000" transform="translate(464.72265625,37.25390625)"/>
</svg>
